<?xml version="1.0" standalone="no"?>
<!DOCTYPE svg PUBLIC "-//W3C//DTD SVG 20010904//EN"
 "http://www.w3.org/TR/2001/REC-SVG-20010904/DTD/svg10.dtd">
<svg version="1.0" xmlns="http://www.w3.org/2000/svg"
 width="300.000000pt" height="235.000000pt" viewBox="0 0 300.000000 235.000000"
 preserveAspectRatio="xMidYMid meet">
<metadata>
Created by potrace 1.10, written by Peter Selinger 2001-2011
</metadata>
<g transform="translate(0.000000,235.000000) scale(0.100000,-0.100000)"
fill="#000000" stroke="none">
<path d="M1564 2321 c-53 -25 -94 -74 -94 -114 0 -37 30 -91 59 -107 12 -6 21
-14 21 -18 0 -4 -64 -7 -143 -8 -155 0 -221 -13 -334 -64 -151 -69 -310 -208
-361 -317 -38 -82 -39 -188 0 -253 100 -170 299 -195 447 -57 91 86 177 120
294 118 135 -2 253 -48 340 -134 151 -147 151 -332 1 -554 -124 -183 -265
-279 -469 -319 -97 -19 -111 -17 -40 7 224 76 395 208 461 355 99 223 2 485
-206 552 -133 44 -292 0 -351 -95 -17 -28 -20 -46 -17 -94 2 -32 2 -55 -1 -50
-3 4 -26 19 -51 32 -55 29 -158 32 -205 7 -80 -43 -125 -118 -125 -208 0 -73
22 -121 79 -173 101 -91 252 -68 336 52 27 38 30 51 30 114 0 40 -4 84 -8 99
l-9 27 53 -20 c44 -17 60 -19 95 -10 96 24 119 7 112 -85 -5 -55 -35 -103
-112 -175 -40 -37 -175 -103 -246 -120 -70 -16 -286 -16 -365 0 -186 38 -386
120 -555 228 -52 33 -106 66 -120 73 -51 26 32 -50 116 -106 287 -191 664
-284 929 -229 153 32 321 149 376 262 31 64 23 147 -16 181 -23 19 -35 23 -64
18 -110 -18 -118 -18 -148 -2 -142 73 -60 236 126 253 155 14 294 -86 336
-242 63 -232 -80 -454 -371 -575 -415 -172 -954 -9 -1289 390 -59 71 -33 9 33
-78 136 -179 309 -299 545 -377 145 -47 264 -65 441 -65 197 0 305 22 436 86
81 40 108 60 185 138 238 242 292 499 144 686 -100 126 -261 196 -429 187
-117 -6 -180 -32 -271 -112 -43 -38 -92 -71 -118 -80 -98 -33 -211 -9 -268 59
-102 120 -77 266 68 408 87 84 195 152 307 192 85 30 91 31 262 31 150 -1 188
-4 265 -24 399 -103 672 -367 750 -725 25 -113 17 -299 -19 -419 -105 -354
-356 -599 -703 -687 -437 -112 -996 41 -1343 367 -44 42 -115 121 -157 177
-55 73 -74 93 -69 71 9 -37 80 -136 153 -216 199 -214 495 -374 828 -446 61
-13 128 -17 285 -17 182 0 215 3 295 23 188 49 347 136 484 266 89 84 89 73 2
-30 -66 -77 -147 -153 -236 -221 -61 -46 -79 -63 -72 -70 2 -3 45 22 94 55
115 77 278 245 366 377 110 166 142 243 271 653 41 129 66 175 110 202 40 24
77 24 125 -1 85 -43 116 -111 108 -234 -13 -196 -161 -464 -361 -654 -121
-114 -239 -189 -485 -309 -117 -57 -212 -106 -209 -108 13 -14 229 74 384 157
71 37 192 114 248 157 66 51 230 227 275 296 146 223 219 459 179 576 -19 56
-66 117 -112 144 -49 29 -125 33 -166 10 -14 -8 -28 -14 -31 -15 -4 0 -6 32
-5 71 3 78 -9 185 -25 239 -69 228 -261 355 -347 230 -15 -22 -29 -39 -32 -40
-3 0 -25 35 -50 77 -89 152 -250 292 -396 345 -82 29 -197 33 -250 9z m298
-68 c157 -79 278 -203 361 -372 23 -47 47 -90 53 -96 17 -16 117 -163 156
-231 73 -125 82 -163 82 -324 l-1 -145 19 60 c15 46 19 80 15 150 -5 121 -43
215 -152 381 -47 71 -88 144 -91 162 -14 74 38 121 113 100 45 -12 122 -87
153 -148 84 -164 79 -439 -10 -636 -16 -37 -30 -76 -30 -87 0 -32 -78 -255
-116 -332 -40 -80 -38 -70 10 70 35 99 56 222 56 321 0 140 -53 321 -134 458
-51 86 -176 220 -263 282 -72 52 -228 134 -255 134 -9 0 -19 4 -22 9 -3 5 -27
14 -52 20 -26 7 -45 14 -43 16 12 11 166 -18 242 -45 100 -37 185 -95 236
-164 19 -25 40 -47 48 -50 26 -10 -29 76 -82 129 -93 93 -214 140 -449 175
-138 20 -170 34 -194 84 -19 38 -2 76 46 105 32 19 48 21 129 18 84 -3 98 -6
175 -44z m-775 -1074 c63 -24 122 -109 123 -177 0 -65 -50 -146 -112 -178 -15
-8 -53 -14 -86 -14 -145 0 -235 145 -171 278 41 84 154 126 246 91z"/>
<path d="M1845 2125 c33 -8 87 -23 119 -34 69 -24 82 -26 45 -6 -36 19 -168
55 -199 54 -14 -1 2 -7 35 -14z"/>
<path d="M2438 1705 c43 -60 97 -158 140 -255 6 -14 11 -18 11 -10 1 49 -115
255 -174 310 -17 16 -9 -1 23 -45z"/>
<path d="M992 930 c0 -50 1 -52 8 -21 5 19 4 44 0 55 -6 15 -9 5 -8 -34z"/>
<path d="M1085 1891 c-27 -21 -65 -59 -83 -85 -33 -46 -72 -139 -72 -173 -1
-33 -39 -103 -62 -114 -35 -15 -75 4 -95 45 -15 33 -15 38 1 81 10 25 34 67
53 93 57 75 59 80 15 32 -60 -65 -96 -141 -89 -187 8 -49 42 -83 82 -83 56 0
81 31 115 137 38 122 65 167 141 237 71 64 68 74 -6 17z"/>
<path d="M1395 1321 c-17 -10 -44 -33 -59 -52 -16 -19 -38 -39 -50 -46 -11 -7
-15 -12 -8 -13 8 0 28 14 45 32 18 17 51 47 75 65 47 36 45 44 -3 14z"/>
<path d="M2529 758 c-50 -121 -136 -250 -254 -377 -67 -72 -67 -73 -18 -32 95
79 189 208 255 348 22 47 38 87 35 89 -2 3 -10 -10 -18 -28z"/>
<path d="M2647 681 c-130 -168 -278 -310 -394 -378 -43 -25 -51 -33 -34 -33
10 0 198 125 227 151 11 11 23 16 27 13 8 -8 187 174 187 190 -1 6 -18 -9 -40
-34 -42 -48 -66 -51 -27 -4 22 27 84 113 101 142 18 30 -4 7 -47 -47z"/>
</g>
</svg>
